<svg width="112" height="58" viewBox="0 0 112 58" fill="none" xmlns="http://www.w3.org/2000/svg">
<g opacity="0.9">
<path fill-rule="evenodd" clip-rule="evenodd" d="M23.2113 12.043C22.197 11.7532 21.1344 12.3137 20.8009 13.3145L19.0957 18.43C18.891 19.0441 18.6118 19.6307 18.2643 20.1768L14.331 26.3576C14.0696 26.7683 13.7722 27.1521 13.4433 27.505C12.551 26.0502 10.7007 25.2809 8.92223 25.9478L7.33357 26.5436C5.94508 27.0643 4.99383 28.3543 4.90675 29.8346L4.30637 40.041C4.19036 42.0133 5.62439 43.7372 7.58477 43.9823L9.24951 44.1904C10.6931 44.3708 12.0355 43.7074 12.8019 42.5995L22.6094 44.7316C25.6432 45.3911 28.753 43.9981 30.2806 41.2953L34.4793 33.867C36.5202 30.2561 33.9115 25.785 29.7637 25.785H26.3359C25.5146 25.785 24.9165 25.0065 25.1281 24.2129L26.7226 18.2336C27.4361 15.5578 25.8741 12.8038 23.2113 12.043ZM9.80004 28.2886C10.641 27.9733 11.5303 28.6214 11.4875 29.5185L10.9632 40.5288C10.9286 41.2561 10.2821 41.8 9.5596 41.7097L7.89486 41.5016C7.2414 41.4199 6.76339 40.8452 6.80206 40.1878L7.40244 29.9814C7.43146 29.488 7.74855 29.058 8.21137 28.8844L9.80004 28.2886Z" fill="#19CF74"/>
</g>
<g opacity="0.9">
<path fill-rule="evenodd" clip-rule="evenodd" d="M95.2113 46.4919C94.197 46.7817 93.1344 46.2212 92.8008 45.2204L91.0957 40.1049C90.891 39.4908 90.6118 38.9042 90.2643 38.3581L86.331 32.1773C86.0696 31.7666 85.7722 31.3828 85.4433 31.0299C84.551 32.4847 82.7007 33.254 80.9222 32.5871L79.3336 31.9913C77.9451 31.4706 76.9938 30.1806 76.9067 28.7003L76.3064 18.4939C76.1904 16.5216 77.6244 14.7977 79.5848 14.5526L81.2495 14.3445C82.6931 14.1641 84.0355 14.8275 84.8019 15.9354L94.6094 13.8033C97.6432 13.1438 100.753 14.5368 102.281 17.2396L106.479 24.6679C108.52 28.2788 105.911 32.7499 101.764 32.7499H98.3359C97.5146 32.7499 96.9165 33.5284 97.1281 34.322L98.7226 40.3013C99.4361 42.9771 97.8741 45.7311 95.2113 46.4919ZM81.8 30.2462C82.641 30.5616 83.5303 29.9135 83.4875 29.0164L82.9632 18.0061C82.9286 17.2788 82.2821 16.7349 81.5596 16.8252L79.8949 17.0333C79.2414 17.115 78.7634 17.6896 78.8021 18.347L79.4024 28.5535C79.4315 29.0469 79.7485 29.4769 80.2114 29.6505L81.8 30.2462Z" fill="#19CF74"/>
</g>
<path opacity="0.4" d="M40 57L72 1" stroke="#37B8CC"/>
</svg>
