<svg width="40" height="40" viewBox="0 0 40 40" fill="none" xmlns="http://www.w3.org/2000/svg">
<path d="M18.3334 29.1668C18.3334 30.9935 18.7851 32.7152 19.5834 34.2252V35.4168C19.5833 35.7335 19.463 36.0384 19.2468 36.2698C19.0306 36.5012 18.7346 36.642 18.4186 36.6635C18.1026 36.6851 17.7903 36.586 17.5446 36.3861C17.2989 36.1862 17.1383 35.9006 17.0951 35.5868L17.0834 35.4168V31.6368C14.3193 31.4316 11.7282 30.2131 9.8071 28.2151C7.886 26.2171 6.7701 23.5802 6.67342 20.8102L6.66675 20.4168V19.5835C6.66685 19.2668 6.78716 18.9619 7.00337 18.7305C7.21958 18.4991 7.51558 18.3584 7.83155 18.3368C8.14752 18.3152 8.4599 18.4144 8.70558 18.6142C8.95126 18.8141 9.11191 19.0997 9.15508 19.4135L9.16675 19.5835V20.4168C9.16656 22.6753 10.0396 24.8463 11.6033 26.4759C13.167 28.1054 15.3002 29.0672 17.5567 29.1602L17.9167 29.1668H18.3334ZM18.6251 26.6602C19.0217 24.9966 19.8059 23.4503 20.9138 22.1475C22.0217 20.8447 23.4218 19.8222 25.0001 19.1635V10.0002C25.0001 8.23205 24.2977 6.53636 23.0475 5.28612C21.7972 4.03588 20.1015 3.3335 18.3334 3.3335C16.5653 3.3335 14.8696 4.03588 13.6194 5.28612C12.3691 6.53636 11.6667 8.23205 11.6667 10.0002V20.0002C11.6668 20.9002 11.8491 21.7909 12.2026 22.6185C12.5561 23.4462 13.0736 24.1937 13.7237 24.816C14.3739 25.4384 15.1434 25.9226 15.9858 26.2395C16.8281 26.5564 17.7259 26.6995 18.6251 26.6602ZM33.3334 29.1668C33.3334 30.2719 32.8944 31.3317 32.113 32.1131C31.3316 32.8945 30.2718 33.3335 29.1667 33.3335C28.0617 33.3335 27.0019 32.8945 26.2205 32.1131C25.4391 31.3317 25.0001 30.2719 25.0001 29.1668C25.0001 28.0618 25.4391 27.002 26.2205 26.2206C27.0019 25.4391 28.0617 25.0002 29.1667 25.0002C30.2718 25.0002 31.3316 25.4391 32.113 26.2206C32.8944 27.002 33.3334 28.0618 33.3334 29.1668ZM38.3334 29.1668C38.3334 31.598 37.3676 33.9296 35.6486 35.6486C33.9295 37.3677 31.5979 38.3335 29.1667 38.3335C26.7356 38.3335 24.404 37.3677 22.6849 35.6486C20.9659 33.9296 20.0001 31.598 20.0001 29.1668C20.0001 26.7357 20.9659 24.4041 22.6849 22.685C24.404 20.9659 26.7356 20.0002 29.1667 20.0002C31.5979 20.0002 33.9295 20.9659 35.6486 22.685C37.3676 24.4041 38.3334 26.7357 38.3334 29.1668ZM22.5001 29.1668C22.5001 30.9349 23.2025 32.6306 24.4527 33.8809C25.7029 35.1311 27.3986 35.8335 29.1667 35.8335C30.9349 35.8335 32.6305 35.1311 33.8808 33.8809C35.131 32.6306 35.8334 30.9349 35.8334 29.1668C35.8334 27.3987 35.131 25.703 33.8808 24.4528C32.6305 23.2025 30.9349 22.5002 29.1667 22.5002C27.3986 22.5002 25.7029 23.2025 24.4527 24.4528C23.2025 25.703 22.5001 27.3987 22.5001 29.1668Z" fill="#19CF74"/>
</svg>
