<svg width="112" height="58" viewBox="0 0 112 58" fill="none" xmlns="http://www.w3.org/2000/svg">
<path d="M91.9996 14.6665C88.3177 14.6665 85.3329 17.6513 85.3329 21.3332C85.3329 25.0151 88.3177 27.9999 91.9996 27.9999C95.6815 27.9999 98.6662 25.0151 98.6662 21.3332C98.6662 17.6513 95.6815 14.6665 91.9996 14.6665Z" fill="#19CF74"/>
<path d="M91.9995 30.5C88.3495 30.5 84.9509 31.5928 82.1178 33.4693C80.918 34.2639 80.3329 35.6089 80.3329 36.9226C80.3329 39.3586 82.3076 41.3333 84.7436 41.3333H99.2555C101.691 41.3333 103.666 39.3586 103.666 36.9226C103.666 35.6089 103.081 34.264 101.881 33.4693C99.0482 31.5928 95.6496 30.5 91.9995 30.5Z" fill="#19CF74"/>
<path d="M98.9441 26.8889C98.9441 24.2042 101.121 22.0278 103.805 22.0278C106.49 22.0278 108.666 24.2042 108.666 26.8889C108.666 29.5736 106.49 31.75 103.805 31.75C103.19 31.75 102.602 31.6359 102.061 31.4276C101.792 31.2685 101.512 31.1277 101.221 31.0069C99.8532 30.1467 98.9441 28.624 98.9441 26.8889Z" fill="#19CF74"/>
<path d="M103.893 41.3056H106.976C108.83 41.3056 110.333 39.8026 110.333 37.9485C110.333 36.9545 109.89 35.917 108.957 35.2989C107.541 34.3616 105.922 33.7076 104.18 33.418C104.908 34.4862 105.333 35.7768 105.333 37.1667C105.333 38.7305 104.794 40.1686 103.893 41.3056Z" fill="#19CF74"/>
<path d="M80.1937 22.0278C82.8785 22.0278 85.0549 24.2042 85.0549 26.8889C85.0549 28.624 84.1458 30.1468 82.778 31.0069C82.4871 31.1277 82.2066 31.2685 81.9383 31.4276C81.3968 31.6358 80.8086 31.75 80.1937 31.75C77.509 31.75 75.3326 29.5736 75.3326 26.8889C75.3326 24.2042 77.509 22.0278 80.1937 22.0278Z" fill="#19CF74"/>
<path d="M78.6661 37.1667C78.6661 35.7768 79.0915 34.4862 79.8192 33.418C78.0775 33.7076 76.4577 34.3616 75.0425 35.2989C74.1093 35.917 73.666 36.9545 73.666 37.9485C73.666 39.8026 75.169 41.3056 77.0231 41.3056H80.1062C79.2046 40.1686 78.6661 38.7305 78.6661 37.1667Z" fill="#19CF74"/>
<path fill-rule="evenodd" clip-rule="evenodd" d="M28.7086 25.2917C30.8011 25.2917 32.5025 26.8799 32.5025 28.8333V39.4583C32.5025 41.4118 30.8011 43 28.7086 43H11.291C9.19544 43 7.49707 41.4118 7.49707 39.4583V28.8333C7.49707 26.8799 9.19544 25.2917 11.291 25.2917H11.7061V20.9688C11.7061 16.5677 15.4209 13 19.9997 13C24.5785 13 28.2934 16.5677 28.2934 20.9688V25.2917H28.7086ZM19.9997 16.5417C17.454 16.5417 15.3921 18.5239 15.3921 20.9688V25.2917H24.6073V20.9688C24.6073 18.5239 22.5454 16.5417 19.9997 16.5417Z" fill="#19CF74"/>
<path opacity="0.4" d="M40 57L72 1" stroke="#37B8CC"/>
</svg>
