<svg width="34" height="27" viewBox="0 0 34 27" fill="none" xmlns="http://www.w3.org/2000/svg">
<path fill-rule="evenodd" clip-rule="evenodd" d="M6.53261 8.02976e-07H26.8007C27.691 -1.9197e-05 28.434 -3.91267e-05 29.0411 0.0495609C29.6742 0.101291 30.2687 0.213141 30.8308 0.499551C31.6932 0.938971 32.3943 1.64013 32.8338 2.50254C33.1202 3.06465 33.232 3.65907 33.2837 4.29217C33.3333 4.89927 33.3333 5.64237 33.3333 6.53257V20.1341C33.3333 21.0244 33.3333 21.7674 33.2837 22.3745C33.232 23.0076 33.1202 23.602 32.8338 24.1642C32.3943 25.0266 31.6932 25.7277 30.8308 26.1671C30.2687 26.4535 29.6742 26.5654 29.0411 26.6171C28.434 26.6667 27.691 26.6667 26.8007 26.6667H6.53259C5.64234 26.6667 4.89927 26.6667 4.29222 26.6171C3.65908 26.5654 3.06465 26.4535 2.50255 26.1671C1.64014 25.7277 0.93898 25.0266 0.49956 24.1642C0.21315 23.602 0.1013 23.0076 0.0495704 22.3745C-2.96272e-05 21.7674 -9.71002e-06 21.0243 2.89976e-07 20.1341V6.53257C-9.71002e-06 5.64237 -2.96272e-05 4.89927 0.0495704 4.29217C0.1013 3.65907 0.21315 3.06465 0.49956 2.50254C0.93898 1.64013 1.64014 0.938971 2.50255 0.499551C3.06465 0.213141 3.65908 0.101291 4.29222 0.0495609C4.89928 -3.91267e-05 5.64236 -1.9197e-05 6.53261 8.02976e-07ZM4.4958 2.54126C4.01726 2.58036 3.78846 2.65016 3.63752 2.72707C3.24552 2.9268 2.92681 3.24551 2.72708 3.63747C2.65017 3.78847 2.58037 4.01727 2.54127 4.49577C2.50098 4.98897 2.50001 5.62927 2.50001 6.58337V12.0834H15.4166V2.5H6.58334C5.62929 2.5 4.98893 2.50097 4.4958 2.54126ZM17.9166 2.5V12.0834H30.8333V6.58337C30.8333 5.62927 30.8323 4.98897 30.792 4.49577C30.7529 4.01727 30.6831 3.78847 30.6062 3.63747C30.4065 3.24551 30.0878 2.9268 29.6958 2.72707C29.5449 2.65016 29.316 2.58036 28.8375 2.54126C28.3444 2.50097 27.704 2.5 26.75 2.5H17.9166ZM30.8333 14.5834H17.9166V24.1667H26.75C27.704 24.1667 28.3444 24.1657 28.8375 24.1254C29.316 24.0863 29.5449 24.0165 29.6958 23.9396C30.0878 23.7399 30.4065 23.4212 30.6062 23.0292C30.6831 22.8782 30.7529 22.6494 30.792 22.1709C30.8323 21.6778 30.8333 21.0374 30.8333 20.0834V14.5834ZM15.4166 24.1667V14.5834H2.50001V20.0834C2.50001 21.0374 2.50098 21.6778 2.54127 22.1709C2.58037 22.6494 2.65017 22.8782 2.72708 23.0292C2.92681 23.4212 3.24552 23.7399 3.63752 23.9396C3.78846 24.0165 4.01726 24.0863 4.4958 24.1254C4.98893 24.1657 5.62929 24.1667 6.58334 24.1667H15.4166Z" fill="#19CF74"/>
</svg>
