<svg width="103" height="27" viewBox="0 0 103 27" fill="none" xmlns="http://www.w3.org/2000/svg">
<path d="M10.576 26.432C8.824 26.432 7.084 26.204 5.356 25.748C3.628 25.268 2.164 24.596 0.964 23.732L3.232 19.268C4.192 19.964 5.308 20.516 6.58 20.924C7.852 21.332 9.136 21.536 10.432 21.536C11.896 21.536 13.048 21.248 13.888 20.672C14.728 20.096 15.148 19.304 15.148 18.296C15.148 17.336 14.776 16.58 14.032 16.028C13.288 15.476 12.088 15.2 10.432 15.2H7.768V11.348L14.788 3.392L15.436 5.48H2.224V0.799998H19.864V4.58L12.88 12.536L9.928 10.844H11.62C14.716 10.844 17.056 11.54 18.64 12.932C20.224 14.324 21.016 16.112 21.016 18.296C21.016 19.712 20.644 21.044 19.9 22.292C19.156 23.516 18.016 24.512 16.48 25.28C14.944 26.048 12.976 26.432 10.576 26.432ZM43.792 26.432C41.728 26.432 39.88 25.928 38.248 24.92C36.616 23.888 35.332 22.4 34.396 20.456C33.46 18.512 32.992 16.16 32.992 13.4C32.992 10.64 33.46 8.288 34.396 6.344C35.332 4.4 36.616 2.924 38.248 1.916C39.88 0.883999 41.728 0.368 43.792 0.368C45.88 0.368 47.728 0.883999 49.336 1.916C50.968 2.924 52.252 4.4 53.188 6.344C54.124 8.288 54.592 10.64 54.592 13.4C54.592 16.16 54.124 18.512 53.188 20.456C52.252 22.4 50.968 23.888 49.336 24.92C47.728 25.928 45.88 26.432 43.792 26.432ZM43.792 21.5C44.776 21.5 45.628 21.224 46.348 20.672C47.092 20.12 47.668 19.244 48.076 18.044C48.508 16.844 48.724 15.296 48.724 13.4C48.724 11.504 48.508 9.956 48.076 8.756C47.668 7.556 47.092 6.68 46.348 6.128C45.628 5.576 44.776 5.3 43.792 5.3C42.832 5.3 41.98 5.576 41.236 6.128C40.516 6.68 39.94 7.556 39.508 8.756C39.1 9.956 38.896 11.504 38.896 13.4C38.896 15.296 39.1 16.844 39.508 18.044C39.94 19.244 40.516 20.12 41.236 20.672C41.98 21.224 42.832 21.5 43.792 21.5ZM67.7696 26.432C65.7056 26.432 63.8576 25.928 62.2256 24.92C60.5936 23.888 59.3096 22.4 58.3736 20.456C57.4376 18.512 56.9696 16.16 56.9696 13.4C56.9696 10.64 57.4376 8.288 58.3736 6.344C59.3096 4.4 60.5936 2.924 62.2256 1.916C63.8576 0.883999 65.7056 0.368 67.7696 0.368C69.8576 0.368 71.7056 0.883999 73.3136 1.916C74.9456 2.924 76.2296 4.4 77.1656 6.344C78.1016 8.288 78.5696 10.64 78.5696 13.4C78.5696 16.16 78.1016 18.512 77.1656 20.456C76.2296 22.4 74.9456 23.888 73.3136 24.92C71.7056 25.928 69.8576 26.432 67.7696 26.432ZM67.7696 21.5C68.7536 21.5 69.6056 21.224 70.3256 20.672C71.0696 20.12 71.6456 19.244 72.0536 18.044C72.4856 16.844 72.7016 15.296 72.7016 13.4C72.7016 11.504 72.4856 9.956 72.0536 8.756C71.6456 7.556 71.0696 6.68 70.3256 6.128C69.6056 5.576 68.7536 5.3 67.7696 5.3C66.8096 5.3 65.9576 5.576 65.2136 6.128C64.4936 6.68 63.9176 7.556 63.4856 8.756C63.0776 9.956 62.8736 11.504 62.8736 13.4C62.8736 15.296 63.0776 16.844 63.4856 18.044C63.9176 19.244 64.4936 20.12 65.2136 20.672C65.9576 21.224 66.8096 21.5 67.7696 21.5ZM91.7472 26.432C89.6832 26.432 87.8352 25.928 86.2032 24.92C84.5712 23.888 83.2872 22.4 82.3512 20.456C81.4152 18.512 80.9472 16.16 80.9472 13.4C80.9472 10.64 81.4152 8.288 82.3512 6.344C83.2872 4.4 84.5712 2.924 86.2032 1.916C87.8352 0.883999 89.6832 0.368 91.7472 0.368C93.8352 0.368 95.6832 0.883999 97.2912 1.916C98.9232 2.924 100.207 4.4 101.143 6.344C102.079 8.288 102.547 10.64 102.547 13.4C102.547 16.16 102.079 18.512 101.143 20.456C100.207 22.4 98.9232 23.888 97.2912 24.92C95.6832 25.928 93.8352 26.432 91.7472 26.432ZM91.7472 21.5C92.7312 21.5 93.5832 21.224 94.3032 20.672C95.0472 20.12 95.6232 19.244 96.0312 18.044C96.4632 16.844 96.6792 15.296 96.6792 13.4C96.6792 11.504 96.4632 9.956 96.0312 8.756C95.6232 7.556 95.0472 6.68 94.3032 6.128C93.5832 5.576 92.7312 5.3 91.7472 5.3C90.7872 5.3 89.9352 5.576 89.1912 6.128C88.4712 6.68 87.8952 7.556 87.4632 8.756C87.0552 9.956 86.8512 11.504 86.8512 13.4C86.8512 15.296 87.0552 16.844 87.4632 18.044C87.8952 19.244 88.4712 20.12 89.1912 20.672C89.9352 21.224 90.7872 21.5 91.7472 21.5Z" fill="#19CF74"/>
</svg>
