<svg width="54" height="58" viewBox="0 0 54 58" fill="none" xmlns="http://www.w3.org/2000/svg">
<path d="M13.5 19.6821L18.9 14.4335L13.5 9.18496L8.1 14.4335L13.5 19.6821ZM5.4 34.1156C3.915 34.1156 2.6442 33.6021 1.5876 32.5751C0.531 31.5482 0.0018 30.3121 0 28.867V5.24855C0 3.8052 0.5292 2.57004 1.5876 1.54307C2.646 0.516108 3.9168 0.00174952 5.4 0H48.6C50.085 0 51.3567 0.514358 52.4151 1.54307C53.4735 2.57179 54.0018 3.80695 54 5.24855V28.867C54 30.3104 53.4717 31.5464 52.4151 32.5751C51.3585 33.6038 50.0868 34.1173 48.6 34.1156H39.8925C40.1625 33.2408 40.3425 32.3661 40.4325 31.4913C40.5225 30.6165 40.5225 29.7418 40.4325 28.867H48.6V5.24855H5.4V28.867H13.5675C13.4775 29.7418 13.4775 30.6165 13.5675 31.4913C13.6575 32.3661 13.8375 33.2408 14.1075 34.1156H5.4ZM39.15 15.7456C40.275 15.7456 41.2317 15.3634 42.0201 14.5988C42.8085 13.8343 43.2018 12.9044 43.2 11.8092C43.1982 10.714 42.8049 9.78505 42.0201 9.02226C41.2353 8.25947 40.2786 7.87632 39.15 7.87282C38.0214 7.86932 37.0656 8.25247 36.2826 9.02226C35.4996 9.79204 35.1054 10.721 35.1 11.8092C35.0946 12.8974 35.4888 13.8273 36.2826 14.5988C37.0764 15.3704 38.0322 15.7526 39.15 15.7456ZM8.1 57.734V52.2231C8.1 50.6922 8.5392 49.2708 9.4176 47.9586C10.296 46.6465 11.4543 45.6624 12.8925 45.0063C15.0975 44.0003 17.3925 43.2463 19.7775 42.7442C22.1625 42.2421 24.57 41.9901 27 41.9884C29.43 41.9866 31.8375 42.2386 34.2225 42.7442C36.6075 43.2498 38.9025 44.0038 41.1075 45.0063C42.5475 45.6624 43.7067 46.6465 44.5851 47.9586C45.4635 49.2708 45.9018 50.6922 45.9 52.2231V57.734H8.1ZM13.5 52.4855H40.5V52.2231C40.5 51.6982 40.3425 51.2171 40.0275 50.7797C39.7125 50.3423 39.3075 50.0143 38.8125 49.7956C36.9225 48.9646 34.9875 48.3304 33.0075 47.893C31.0275 47.4556 29.025 47.2369 27 47.2369C24.975 47.2369 22.9725 47.4556 20.9925 47.893C19.0125 48.3304 17.0775 48.9646 15.1875 49.7956C14.6925 50.0143 14.2875 50.3423 13.9725 50.7797C13.6575 51.2171 13.5 51.6982 13.5 52.2231V52.4855ZM27 39.3641C24.39 39.3641 22.1625 38.4675 20.3175 36.6742C18.4725 34.881 17.55 32.716 17.55 30.1792C17.55 27.6424 18.4725 25.4773 20.3175 23.6841C22.1625 21.8908 24.39 20.9942 27 20.9942C29.61 20.9942 31.8375 21.8908 33.6825 23.6841C35.5275 25.4773 36.45 27.6424 36.45 30.1792C36.45 32.716 35.5275 34.881 33.6825 36.6742C31.8375 38.4675 29.61 39.3641 27 39.3641ZM27 34.1156C28.125 34.1156 29.0817 33.7333 29.8701 32.9688C30.6585 32.2042 31.0518 31.2744 31.05 30.1792C31.0482 29.084 30.6549 28.155 29.8701 27.3922C29.0853 26.6294 28.1286 26.2462 27 26.2427C25.8714 26.2392 24.9156 26.6224 24.1326 27.3922C23.3496 28.162 22.9554 29.091 22.95 30.1792C22.9446 31.2674 23.3388 32.1972 24.1326 32.9688C24.9264 33.7403 25.8822 34.1226 27 34.1156Z" fill="#19CF74"/>
</svg>
