<svg width="64" height="64" viewBox="0 0 64 64" fill="none" xmlns="http://www.w3.org/2000/svg">
<g clip-path="url(#clip0_27_2)">
<path fill-rule="evenodd" clip-rule="evenodd" d="M46.6666 32.0001C54.7668 32.0001 61.3333 25.4336 61.3333 17.3334C61.3333 9.23324 54.7668 2.66675 46.6666 2.66675C38.5664 2.66675 31.9999 9.23324 31.9999 17.3334C31.9999 25.4336 38.5664 32.0001 46.6666 32.0001ZM41.8979 15.5833C40.831 15.2974 39.7343 15.9306 39.4484 16.9975C39.1626 18.0644 39.7957 19.1611 40.8626 19.447C41.5714 19.6369 42.1977 20.0554 42.6444 20.6375C43.0911 21.2197 43.3333 21.933 43.3333 22.6667C43.3333 23.7713 44.2287 24.6667 45.3333 24.6667C46.4378 24.6667 47.3333 23.7713 47.3333 22.6667C47.3333 21.0524 46.8006 19.4832 45.8178 18.2025C44.8351 16.9218 43.4572 16.0011 41.8979 15.5833ZM41.519 9.40343C41.8049 8.3365 42.9015 7.70333 43.9685 7.98922C47.2289 8.86283 50.1099 10.7879 52.1647 13.4657C54.2195 16.1436 55.3333 19.4247 55.3333 22.8001C55.3333 23.9046 54.4378 24.8001 53.3333 24.8001C52.2287 24.8001 51.3333 23.9046 51.3333 22.8001C51.3333 20.3052 50.51 17.8801 48.9913 15.9008C47.4725 13.9215 45.343 12.4986 42.9332 11.8529C41.8663 11.567 41.2331 10.4704 41.519 9.40343Z" fill="#19CF74"/>
<path d="M17.0666 13.3334H29.7971C29.4938 14.6175 29.3333 15.9567 29.3333 17.3334C29.3333 26.9064 37.0937 34.6667 46.6666 34.6667C49.029 34.6667 51.281 34.1941 53.3333 33.3383V36.2668C53.3333 38.507 53.3333 39.6271 52.8973 40.4827C52.5138 41.2354 51.9019 41.8473 51.1492 42.2308C50.2936 42.6667 49.1735 42.6667 46.9333 42.6667H17.0666C14.8264 42.6667 13.7063 42.6667 12.8506 42.2308C12.098 41.8473 11.4861 41.2354 11.1026 40.4827C10.6666 39.6271 10.6666 38.507 10.6666 36.2668V19.7334C10.6666 17.4932 10.6666 16.3731 11.1026 15.5175C11.4861 14.7648 12.098 14.1529 12.8506 13.7694C13.7063 13.3334 14.8264 13.3334 17.0666 13.3334Z" fill="#19CF74"/>
<path d="M7.33325 45.3334C6.22868 45.3334 5.33325 46.2288 5.33325 47.3334C5.33325 48.438 6.22868 49.3334 7.33325 49.3334H56.6666C57.7712 49.3334 58.6666 48.438 58.6666 47.3334C58.6666 46.2288 57.7712 45.3334 56.6666 45.3334H7.33325Z" fill="#19CF74"/>
</g>
<defs>
<clipPath id="clip0_27_2">
<rect width="64" height="64" fill="white"/>
</clipPath>
</defs>
</svg>
