<svg width="47" height="40" viewBox="0 0 47 40" fill="none" xmlns="http://www.w3.org/2000/svg">
<path fill-rule="evenodd" clip-rule="evenodd" d="M9.21857 0.559148C9.52531 0.917155 9.69737 1.40218 9.69696 1.90769C9.69655 2.41319 9.5237 2.89784 9.21638 3.25518C7.33123 5.4381 5.83606 8.03354 4.81705 10.8919C3.79804 13.7503 3.27534 16.815 3.27908 19.9095C3.27535 23.0394 3.81017 26.1385 4.85202 29.0241C5.89387 31.9097 7.42167 34.5235 9.34536 36.7114C9.50267 36.8857 9.62861 37.0948 9.71588 37.3263C9.80315 37.5578 9.85 37.8072 9.8537 38.0599C9.8574 38.3127 9.81789 38.5638 9.73745 38.7986C9.65702 39.0335 9.53726 39.2473 9.38515 39.4279C9.23304 39.6084 9.05161 39.7519 8.8514 39.8501C8.6512 39.9484 8.43621 39.9993 8.21893 40C8.00165 40.0007 7.78643 39.9511 7.58575 39.8542C7.38508 39.7573 7.20297 39.6149 7.05001 39.4354C4.81492 36.8924 3.03973 33.8548 1.82897 30.5014C0.618205 27.148 -0.00364957 23.5467 1.61122e-05 19.9095C1.61122e-05 12.3505 2.63857 5.50356 6.89917 0.556604C7.20688 0.199716 7.62375 -0.000476043 8.05823 8.50083e-07C8.49271 0.000477743 8.91144 0.201586 9.21857 0.559148ZM37.9629 0.742275C38.2735 0.388736 38.692 0.1931 39.1265 0.198346C39.5609 0.203591 39.9759 0.40929 40.2801 0.770252C44.5927 5.87621 47.0064 12.7507 47 19.9095C47 27.4482 44.3767 34.2798 40.1336 39.2243C39.8263 39.5824 39.4093 39.7839 38.9744 39.7844C38.5394 39.7849 38.1221 39.5843 37.8142 39.2268C37.5064 38.8693 37.3332 38.3841 37.3328 37.878C37.3324 37.372 37.5048 36.8864 37.812 36.5282C39.6884 34.3468 41.1762 31.7559 42.1902 28.9041C43.2042 26.0523 43.7244 22.9957 43.7209 19.9095C43.7281 13.7498 41.6519 7.83415 37.941 3.44085C37.6369 3.07982 37.4683 2.59308 37.4724 2.08757C37.4765 1.58205 37.6529 1.09656 37.9629 0.742275ZM15.4291 8.43358C15.7262 8.80292 15.8851 9.29444 15.8707 9.80003C15.8564 10.3056 15.67 10.7839 15.3526 11.1296C13.2781 13.3882 12.0211 16.4759 12.0211 19.8637C12.0211 23.2923 13.3087 26.413 15.4269 28.6792C15.747 29.0219 15.9369 29.4985 15.9549 30.0041C15.973 30.5097 15.8176 31.0029 15.5231 31.3753C15.2286 31.7476 14.819 31.9686 14.3844 31.9896C13.9499 32.0106 13.5259 31.8298 13.2059 31.4872C10.469 28.5597 8.74201 24.4419 8.74201 19.8637C8.74201 15.339 10.4275 11.267 13.1141 8.34202C13.4318 7.99667 13.8544 7.8123 14.289 7.82947C14.7236 7.84664 15.1345 8.06395 15.4313 8.43358M31.6824 8.53023C31.9828 8.16479 32.3956 7.95308 32.8301 7.94164C33.2646 7.93019 33.6853 8.11994 33.9996 8.46919C36.6163 11.3814 38.2558 15.4051 38.2558 19.8637C38.2558 24.3783 36.5791 28.4427 33.9056 31.3625C33.7495 31.5389 33.5648 31.6774 33.3622 31.7699C33.1597 31.8625 32.9433 31.9071 32.7258 31.9013C32.5082 31.8956 32.2939 31.8395 32.0951 31.7363C31.8964 31.6332 31.7173 31.485 31.5683 31.3005C31.4193 31.116 31.3034 30.8988 31.2273 30.6617C31.1511 30.4245 31.1163 30.172 31.1249 29.9191C31.1335 29.6661 31.1853 29.4176 31.2772 29.1882C31.3692 28.9587 31.4995 28.7528 31.6605 28.5826C33.7263 26.3266 34.9767 23.2414 34.9767 19.8637C34.9767 16.5242 33.7547 13.4746 31.7326 11.2263C31.4189 10.8764 31.2373 10.3959 31.2279 9.89036C31.2184 9.38481 31.3819 8.8956 31.6824 8.53023ZM24.7963 11.9944L24.91 12.0707C25.4247 12.3949 25.9306 12.7376 26.4271 13.0982C26.9627 13.4925 27.5311 13.9554 28.0907 14.4335L28.1913 14.5175C29.0832 15.2805 29.9182 15.9926 30.5085 16.715C31.1949 17.5492 31.6977 18.564 31.6977 19.9095C31.6977 21.2575 31.1949 22.2698 30.5106 23.1066C29.9204 23.8264 29.0832 24.5385 28.1913 25.3016C27.6144 25.7932 27.0261 26.2665 26.4271 26.7208C25.9571 27.0667 25.4368 27.4151 24.91 27.7509L24.7941 27.8246C23.9197 28.3842 23.0672 28.9234 22.3195 29.2057C21.4254 29.5414 20.3914 29.6152 19.399 28.8344C18.4634 28.0993 18.0786 27.0107 17.8862 25.973C17.7114 25.0243 17.6458 23.8238 17.5736 22.4962L17.5649 22.3639C17.519 21.5246 17.4884 20.6802 17.4884 19.9095C17.4884 19.1388 17.519 18.297 17.5649 17.4551L17.5736 17.3228C17.6458 15.9952 17.7114 14.7947 17.8862 13.846C18.0786 12.8083 18.4634 11.7197 19.399 10.9846C20.3914 10.2038 21.4254 10.2776 22.3195 10.6133C23.0672 10.8931 23.9197 11.4374 24.7941 11.9944M21.2047 14.2072C21.1553 14.3504 21.1173 14.4985 21.091 14.6497C20.9729 15.2856 20.9183 16.1961 20.8352 17.7018C20.7915 18.4903 20.7653 19.2482 20.7653 19.9095C20.7653 20.5708 20.7915 21.3287 20.8352 22.1197C20.9183 23.6204 20.9729 24.536 21.091 25.1693C21.1173 25.3205 21.1553 25.4687 21.2047 25.6119L21.3096 25.5763C21.7249 25.4186 22.2955 25.065 23.3339 24.4063C23.7882 24.1182 24.235 23.8146 24.6739 23.4957C25.122 23.1651 25.627 22.7581 26.1495 22.3105C27.1769 21.433 27.7672 20.9192 28.1344 20.4716C28.4186 20.1282 28.4186 20.0036 28.4164 19.9197V19.8993C28.4164 19.8154 28.4164 19.6908 28.1344 19.3474C27.7693 18.9023 27.1769 18.386 26.1473 17.5085C25.6679 17.094 25.1765 16.6987 24.6739 16.3233C24.2804 16.0333 23.8214 15.7256 23.3339 15.4153C22.2955 14.754 21.7249 14.3979 21.3096 14.2453L21.2047 14.2072Z" fill="#19CF74"/>
</svg>
